<?xml version="1.0" encoding="UTF-8" standalone="no"?>
<svg
   xmlns:dc="http://purl.org/dc/elements/1.1/"
   xmlns:cc="http://creativecommons.org/ns#"
   xmlns:rdf="http://www.w3.org/1999/02/22-rdf-syntax-ns#"
   xmlns:svg="http://www.w3.org/2000/svg"
   xmlns="http://www.w3.org/2000/svg"
   xmlns:sodipodi="http://sodipodi.sourceforge.net/DTD/sodipodi-0.dtd"
   xmlns:inkscape="http://www.inkscape.org/namespaces/inkscape"
   width="600"
   height="600"
   viewBox="0 0 158.75 158.75"
   version="1.1"
   id="svg8"
   inkscape:version="0.92.5 (2060ec1f9f, 2020-04-08)"
   sodipodi:docname="etherage.svg">
  <defs
     id="defs2" />
  <sodipodi:namedview
     id="base"
     pagecolor="#ffffff"
     bordercolor="#666666"
     borderopacity="1.0"
     inkscape:pageopacity="0.0"
     inkscape:pageshadow="2"
     inkscape:zoom="0.67971619"
     inkscape:cx="326.27197"
     inkscape:cy="232.80533"
     inkscape:document-units="mm"
     inkscape:current-layer="layer1"
     inkscape:document-rotation="0"
     showgrid="false"
     units="px"
     inkscape:window-width="856"
     inkscape:window-height="674"
     inkscape:window-x="880"
     inkscape:window-y="261"
     inkscape:window-maximized="0"
     inkscape:snap-page="false"
     inkscape:snap-grids="false"
     inkscape:snap-to-guides="false" />
  <metadata
     id="metadata5">
    <rdf:RDF>
      <cc:Work
         rdf:about="">
        <dc:format>image/svg+xml</dc:format>
        <dc:type
           rdf:resource="http://purl.org/dc/dcmitype/StillImage" />
        <dc:title></dc:title>
      </cc:Work>
    </rdf:RDF>
  </metadata>
  <g
     inkscape:label="Calque 1"
     inkscape:groupmode="layer"
     id="layer1">
    <ellipse
       style="opacity:0.95;fill:#ffffff;stroke-width:0.264583"
       id="path57"
       cx="76.582687"
       cy="66.389542"
       rx="4.3431296"
       ry="4.2094951" />
    <ellipse
       style="opacity:0.99;fill:#220055;stroke-width:0.264583"
       id="path61"
       cx="73.432297"
       cy="116.39587"
       rx="66.08239"
       ry="22.317005" />
    <path
       style="fill:#ffcc00;stroke:none;stroke-width:0.264583px;stroke-linecap:butt;stroke-linejoin:miter;stroke-opacity:1"
       d="m 32.126827,66.282802 4.192358,3.104285 0.846506,-1.118679 -4.013064,-2.824126 -0.814176,0.947253 z"
       id="path1054"
       sodipodi:nodetypes="cccccc" />
    <path
       style="fill:#552200;stroke:none;stroke-width:0.264583px;stroke-linecap:butt;stroke-linejoin:miter;stroke-opacity:1;fill-opacity:1"
       d="m 19.377041,81.38357 -8.018086,28.19693 c 0,0 9.087164,13.89802 18.441597,12.96258 9.354434,-0.93545 13.49711,5.07812 22.717911,4.14268 9.220798,-0.93545 4.142676,5.34539 16.570708,0.93544 12.428035,-4.40995 11.49259,-4.54358 24.989703,-2.80633 13.497106,1.73725 16.837976,-0.66818 20.312486,-5.87993 3.4745,-5.21176 8.41899,-4.54358 7.75081,-8.95353 -0.66817,-4.40995 4.67722,-3.4745 0.26727,-11.22532 C 117.9995,91.005273 19.377041,81.38357 19.377041,81.38357 Z"
       id="path91" />
    <g
       id="g965"
       style="stroke:none">
      <path
         style="fill:#ff7f2a;stroke:none;stroke-width:0.264583px;stroke-linecap:butt;stroke-linejoin:miter;stroke-opacity:1"
         d="m 22.187676,55.994 c -2.185272,-1.885018 -6.821141,-6.204545 -5.309064,-9.523954 0.190528,-0.418259 0.509544,-0.724445 0.826093,-1.046557 2.404088,-2.44633 6.537822,-1.78458 9.452988,-0.801735 3.143983,1.059995 5.872445,3.113712 8.287843,5.335029 0.231513,0.212907 2.36456,2.458633 2.502497,2.83297 0.0033,0.0088 -0.356526,-0.219638 -0.438607,-0.325535"
         id="path957" />
      <path
         style="fill:#ff7f2a;stroke:none;stroke-width:0.264583px;stroke-linecap:butt;stroke-linejoin:miter;stroke-opacity:1"
         d="m 22.187676,55.994 c 1.089334,1.166736 2.190043,2.395665 3.772584,2.884088 3.250277,1.003144 13.285828,2.483668 15.319058,-1.084223 0.14692,-0.257815 -1.789423,-2.851805 1.116706,-0.949705 2.906128,1.9021 0.182866,-2.471582 0.212576,-2.717287 0.03142,-0.259897 -4.0897,-0.588709 -4.15199,-0.844778 -0.02588,-0.106341 0.06439,-0.422068 0.0081,-0.328229 -0.05548,0.09246 -0.375002,-0.203245 -0.955255,-0.489648"
         id="path961"
         sodipodi:nodetypes="cssssscc" />
    </g>
    <path
       id="path987"
       style="fill:#a05a2c;stroke:none;stroke-width:0.264583px;stroke-linecap:butt;stroke-linejoin:miter;stroke-opacity:1"
       d="m 34.821055,55.562499 c 0.01366,-1.378572 0.300093,-3.494203 1.063381,-4.685103 1.262848,-0.110999 2.098279,2.861241 2.144773,2.873406 0.503663,1.532662 0.808253,4.255443 -1.799481,4.259707 l -1.377595,-2.672733 -0.03108,0.224723"
       sodipodi:nodetypes="cccccc" />
    <path
       id="path1004"
       style="fill:#a05a2c;stroke:none;stroke-width:0.264583px;stroke-linecap:butt;stroke-linejoin:miter;stroke-opacity:1"
       d="m 44.203495,18.89707 c -5.656388,0.864884 -10.517717,5.730115 -11.433477,11.354816 -0.302934,6.015942 4.113311,11.102878 8.819236,14.249755 3.286325,2.251504 5.461947,-2.388828 1.884624,-3.836311 -3.618492,-2.038052 -6.400618,-6.403864 -5.053624,-10.626796 0.618354,-2.901971 3.245922,-4.414595 5.453032,-5.957906 1.282821,-1.346796 1.961173,-3.811219 0.330209,-5.183558 z" />
    <path
       style="fill:#ff7f2a;stroke:none;stroke-width:0.264583px;stroke-linecap:butt;stroke-linejoin:miter;stroke-opacity:1"
       d="m 112.3611,55.956956 c 2.45704,3.344204 2.70028,5.145503 4.74076,2.748121 0.84857,-0.996987 1.46535,-2.176412 2.26127,-3.213973 1.44172,-1.879428 3.21451,-3.45926 5.1599,-4.804336 1.42785,-0.987245 4.39321,-3.019912 6.30161,-2.621052 2.1876,0.457213 3.32518,5.52845 2.76007,7.275772 -0.82128,2.539449 -3.46399,4.023177 -5.17098,5.918147 -3.43968,3.818474 -4.77936,8.639963 -4.69434,13.70372 0.0156,0.926576 0.11828,2.158622 0.82026,2.864869 1.57776,1.587341 11.88399,4.633423 13.69507,2.321819 0.57307,-0.731449 -0.47911,-2.06806 -0.9034,-2.604426 -2.26183,-2.859281 -5.04342,-1.222526 -6.72283,-6.073304 -0.27851,-0.804437 -0.60141,-1.804268 -0.46001,-2.670924 0.33709,-2.066171 5.50702,-6.949244 6.9556,-8.80518 3.42393,-4.386775 3.40563,-10.916642 -2.13933,-13.332451 -6.18405,-2.69425 -12.8386,0.937905 -17.96819,4.239122 -1.174,0.755541 -3.90087,2.039062 -4.43385,3.419004 -0.19786,0.512268 0.14172,1.206481 -0.20161,1.635072 -0.38448,0.479954 -1.17812,0.396137 -1.69386,0.731075 -0.45445,0.295127 -0.82089,1.31404 -1.09184,1.789854 -0.1251,0.219681 -0.58546,0.812839 -0.3935,0.648335 1.04149,-0.892554 2.37496,-2.427454 3.1792,-3.169264"
       id="path1080" />
    <path
       style="fill:#a05a2c;stroke:none;stroke-width:0.264583px;stroke-linecap:butt;stroke-linejoin:miter;stroke-opacity:1"
       d="m 108.31647,43.138084 c 2.68876,3.414504 1.35528,3.384172 3.63658,0.09005 1.02202,-1.475751 2.21762,-2.815254 3.31985,-4.228037 1.31408,-1.684324 2.16939,-3.814016 3.66347,-5.358471 1.78139,-1.841452 3.21637,0.937808 2.882,2.720795 -0.97551,5.201841 -4.54533,10.286561 -8.84553,13.24379 -0.36818,0.253199 -1.12999,0.861486 -1.66824,0.980816 -2.71929,0.602866 -2.75307,-3.810878 -2.3444,-5.336304 0.19051,-0.711103 -0.42543,-1.409568 -0.64373,-2.112635"
       id="path1074" />
    <path
       id="path46"
       style="opacity:1;fill:#ff7f2a;stroke:none;stroke-width:0.26458299px;stroke-linecap:butt;stroke-linejoin:miter;stroke-opacity:1"
       d="M 38.552704,94.544831 C 33.791072,93.757721 28.522549,94.17005 24.46633,91.059444 c -2.624517,-3.147692 -4.758439,-7.23267 -5.297162,-11.385511 -0.397404,-5.970068 10.557722,1.544904 5.882176,-3.300111 -2.982203,-2.985116 -1.619675,-8.223038 2.905411,-8.338531 2.747682,-0.293923 5.335296,-1.26633 6.540029,1.205789 4.170445,-0.759416 6.48767,-6.304611 8.048674,-9.404736 -3.590191,-3.425361 -6.681049,-8.596899 -5.323432,-13.756785 1.008393,-4.479957 7.371952,-5.837828 10.064237,-2.07724 0.68625,1.110893 -3.029131,-4.114464 -1.336783,-5.939228 2.662703,-5.188261 10.329462,-5.1708 14.647245,-2.146543 2.088615,2.234372 1.657809,1.039551 1.734258,-1.125898 1.556037,-4.5932 7.689447,-5.808638 11.830694,-4.335642 3.425696,0.345633 2.595135,7.979785 4.748273,2.943816 2.376003,-3.611726 8.000199,-5.128058 11.204258,-1.720681 2.636827,1.218531 1.977017,8.107156 4.623742,4.130051 3.930886,-2.87915 11.1793,-0.840089 11.31872,4.565958 -0.37514,2.502909 -0.84868,3.786126 2.2598,2.763934 3.97879,-0.580914 9.03773,2.534511 7.95807,7.013681 -0.66881,2.450928 -3.89678,3.70274 -0.20628,4.723382 5.00595,1.004227 6.09192,13.051977 2.36786,20.170458 -3.42451,6.873767 -5.24389,15.235855 -14.18662,19.131101 L 93.550031,91.56055 c 0,0 7.988899,0.181966 -22.258527,1.362494 -5.400295,0.290338 -27.427204,2.60136 -32.7388,1.621787 z"
       inkscape:connector-curvature="0"
       sodipodi:nodetypes="ccccccccccccccccccccccccc" />
    <path
       id="path955"
       style="fill:#552200;stroke:none;stroke-width:0.264583px;stroke-linecap:butt;stroke-linejoin:miter;stroke-opacity:1"
       d="m 36.271091,70.880046 c 0.407537,4.237911 4.815154,6.274059 7.746555,8.69428 5.739452,4.139265 12.388895,6.764147 18.383908,10.432891 1.774592,2.449586 6.556855,3.328315 8.88995,2.915827 -1.726902,3.388211 -8.102085,2.674981 -11.466222,2.681452 -4.675829,2.027301 -9.809707,2.559151 -14.793755,0.811832 -7.017981,-1.42755 -14.231302,-2.320416 -20.914633,-5.02292 -3.113952,-3.046136 -5.377044,-7.637155 -4.612987,-12.060464 -0.990351,-5.519566 6.341347,0.973782 5.093387,-3.589283 -3.002978,-2.065389 -1.535781,-8.137946 2.803476,-8.205783 4.845398,-0.924775 6.768712,1.277042 8.870321,3.342168 z"
       sodipodi:nodetypes="ccccccccccc" />
    <path
       style="fill:#aa8800;stroke:none;stroke-width:0.264583px;stroke-linecap:butt;stroke-linejoin:miter;stroke-opacity:1"
       d="m 20.002161,59.01546 c 0.279849,0.780211 16.26893,11.864586 16.26893,11.864586 L 44.623516,60.21806 27.355789,48.070544 Z"
       id="path63"
       sodipodi:nodetypes="ccccc" />
    <g
       id="g1252"
       transform="translate(1.9955283,-0.75692451)">
      <ellipse
         style="opacity:0.95;fill:#000000;stroke-width:0.214705"
         id="ellipse55"
         cx="99.158035"
         cy="69.019394"
         rx="8.4154024"
         ry="9.2411385" />
      <ellipse
         style="opacity:0.95;fill:#ffffff;stroke-width:0.264583"
         id="ellipse1246"
         cx="101.97407"
         cy="65.219749"
         rx="4.3431296"
         ry="4.2094951" />
    </g>
    <g
       id="g1258"
       transform="translate(-23.671094,0.13762264)">
      <ellipse
         style="opacity:0.95;fill:#000000;stroke-width:0.214705"
         id="ellipse1254"
         cx="99.158035"
         cy="69.019394"
         rx="8.4154024"
         ry="9.2411385" />
      <ellipse
         style="opacity:0.95;fill:#ffffff;stroke-width:0.264583"
         id="ellipse1256"
         cx="101.97407"
         cy="65.219749"
         rx="4.3431296"
         ry="4.2094951" />
    </g>
    <path
       style="fill:#c87137;stroke:none;stroke-width:0.264583px;stroke-linecap:butt;stroke-linejoin:miter;stroke-opacity:1"
       d="m 114.62235,77.637562 c 0.37331,-1.562655 2.79552,-2.140857 4.13456,-1.541856 0.79599,0.356078 1.49789,1.047358 1.99477,1.753446 0.70514,1.00202 1.40418,2.214751 1.76551,3.389342 0.5016,1.630516 0.78319,4.993071 0.2763,6.590606 -0.16466,0.518941 -0.31151,1.069782 -0.58002,1.547736 -0.27781,0.494509 -1.25388,1.69459 -1.95362,1.306756 -0.50416,-0.279426 -0.49211,-1.125193 -0.48988,-1.606507 0.004,-0.890379 -0.14747,-1.792381 0.0607,-2.670332 0.0901,-0.380005 0.33166,-0.727807 0.42914,-1.114761 0.0697,-0.276931 0.10367,-1.259408 -0.047,-1.532061 -0.43028,-0.77846 -1.41062,-1.97883 -2.15742,-2.358827 -1.06085,-0.5398 -2.32944,0.04261 -3.39778,-0.350689 -1.49747,-0.551276 -0.67698,-2.505118 -0.0353,-3.412853 z"
       id="path1161" />
    <path
       id="path967"
       style="fill:#a05a2c;stroke:none;stroke-width:0.264583px;stroke-linecap:butt;stroke-linejoin:miter;stroke-opacity:1"
       d="M 24.229247,53.562461 C 14.315551,46.6815 22.259463,43.258573 26.773189,44.44786 21.872313,42.948201 16.358734,43.245067 16.080254,48.803003 c 0.493989,4.193279 7.330053,10.809079 8.148993,4.759458"
       sodipodi:nodetypes="cccc" />
    <path
       id="path1008"
       style="fill:#ff7f2a;stroke:none;stroke-width:0.264583px;stroke-linecap:butt;stroke-linejoin:miter;stroke-opacity:1"
       d="m 41.244608,21.305466 c -4.749591,1.796776 -7.668297,7.253657 -6.319627,12.193532 0.241662,2.529828 2.852764,8.359978 5.256652,6.652875 -0.637588,-4.017485 -5.143443,-6.942016 -3.798005,-11.433026 0.882904,-2.827375 6.89121,-3.782087 4.86098,-7.413381 z" />
    <path
       style="fill:#ffd42a;stroke:none;stroke-width:0.264583px;stroke-linecap:butt;stroke-linejoin:miter;stroke-opacity:1"
       d="m 51.333243,16.789962 1.513851,-2.477208 5.976913,3.489259 -4.463065,1.878024 z"
       id="path1122" />
    <path
       style="fill:#aa8800;stroke:none;stroke-width:0.264583px;stroke-linecap:butt;stroke-linejoin:miter;stroke-opacity:1;fill-opacity:1"
       d="m 43.2445,22.66071 c 0.02283,-0.985437 2.283269,-6.814352 2.283269,-6.814352 l 13.296238,1.955655 6.834585,6.384411 -1.602095,4.242325 -15.784999,-0.909342 z"
       id="path77" />
    <path
       style="fill:#aa8800;stroke:none;stroke-width:0.264583px;stroke-linecap:butt;stroke-linejoin:miter;stroke-opacity:1"
       d="m 137.22574,72.556921 c -0.16744,1.548546 -4.96665,12.149526 -4.96665,12.149526 l 18.90793,5.3977 3.93363,-11.985367 z"
       id="path79"
       sodipodi:nodetypes="ccccc" />
    <path
       style="fill:#aa4400;stroke:none;stroke-width:0.264583px;stroke-linecap:butt;stroke-linejoin:miter;stroke-opacity:1"
       d="m 43.19652,113.56704 c 0.01167,0.51297 -0.07982,1.03881 0.03498,1.5389 0.779928,3.39747 4.363788,6.98056 7.378334,8.71415 0.824818,0.47433 1.650262,0.90779 2.561699,1.19722 1.838327,0.58375 3.810166,0.62016 5.720765,0.6134 1.575401,-0.006 3.161263,-10e-5 4.722455,-0.24213 3.98154,-0.61726 8.987568,-2.50589 11.667564,-5.63097 1.192832,-1.39093 2.091762,-3.15074 2.903437,-4.79157 0.529688,-1.07079 0.954373,-2.21888 1.716768,-3.1612 0.709038,-0.87637 1.531167,-1.52721 2.548241,-2.00971 0.292574,-0.1388 0.583036,-0.26284 0.896057,-0.34437 0.159681,-0.0416 0.649364,-0.10224 0.484354,-0.10224 -0.531315,0 -1.043369,-0.47099 -1.665642,-0.45736 -0.401984,0.009 -2.407761,-2.57043 -2.795259,-2.48266 -1.879322,0.42566 -2.104221,3.51112 -3.853852,4.36323 -5.304259,2.58332 -10.040051,7.56923 -16.365802,7.21292 -2.986138,-0.1682 -5.561034,-1.9724 -8.115628,-3.38719 -0.923494,-0.51145 -1.93189,-0.85616 -2.860384,-1.35865 -0.681294,-0.3687 -1.299821,-0.96492 -2.020835,-1.24026 -1.112655,-0.4249 -4.267483,-0.33605 -2.957253,1.56849 z"
       id="path941"
       sodipodi:nodetypes="sssscssssssscssssssss" />
    <path
       style="fill:#aa8800;stroke:none;stroke-width:0.229472px;stroke-linecap:butt;stroke-linejoin:miter;stroke-opacity:1"
       d="M 72.242019,105.52272 76.61448,93.245778 88.004186,96.426767 82.794528,108.88451 Z"
       id="path81"
       sodipodi:nodetypes="ccccc" />
    <path
       style="fill:#aa8800;stroke:none;stroke-width:0.264583px;stroke-linecap:butt;stroke-linejoin:miter;stroke-opacity:1"
       d="m 107.93332,87.09457 c 0.58604,2.145892 2.11583,10.360403 2.11583,10.360403 l 13.01463,-5.657702 -3.05958,-9.884804 z"
       id="path83" />
    <path
       style="fill:#c8beb7;stroke:none;stroke-width:0.264583px;stroke-linecap:butt;stroke-linejoin:miter;stroke-opacity:1"
       d="m 114.68038,29.277214 -4.62362,7.693253 11.62565,8.370506 5.20585,-7.145369 z"
       id="path85" />
    <path
       style="fill:#ffcc00;stroke:none;stroke-width:0.264583px;stroke-linecap:butt;stroke-linejoin:miter;stroke-opacity:1"
       d="m 118.64185,32.63683 2.30991,-3.443322 4.62743,2.990554 -2.77798,3.412881 z"
       id="path87" />
    <path
       id="path939"
       style="fill:#aa4400;stroke:none;stroke-width:0.264583px;stroke-linecap:butt;stroke-linejoin:miter;stroke-opacity:1"
       d="m 35.379578,94.061771 c 1.674664,5.525108 4.804439,13.967179 7.816941,19.505269 4.761759,-2.58021 7.883618,0.35942 3.983291,-11.92422 C 39.789734,84.922646 40.171984,91.425759 35.379578,94.061771 Z"
       sodipodi:nodetypes="cccc" />
    <path
       id="path89"
       style="fill:#ff7f2a;stroke:none;stroke-width:0.264583px;stroke-linecap:butt;stroke-linejoin:miter;stroke-opacity:1"
       d="m 23.906361,90.676062 c -7.462812,6.196698 -3.276237,19.638958 6.018123,21.384458 6.837036,1.16098 14.136792,-0.75018 20.618551,2.75617 5.366479,1.24297 10.675945,7.87206 16.264377,3.69437 5.295428,-2.36726 9.064965,-7.02197 14.129423,-9.51595 1.045861,-1.59791 -6.778109,-2.17951 -7.167514,-2.95575 1.717628,3.16809 -6.918115,3.65084 -8.803447,6.92635 -5.901484,3.14154 -10.282383,-4.77746 -16.259178,-4.2803 -6.790423,-1.44851 -16.602742,1.67099 -20.820863,-5.4419 -4.337258,-5.837174 5.467078,-7.366854 4.031627,-12.777574 -1.297356,-3.886998 -5.820373,-1.156381 -8.011099,0.210126 z" />
    <path
       style="fill:#806600;stroke:none;stroke-width:0.264583px;stroke-linecap:butt;stroke-linejoin:miter;stroke-opacity:1"
       d="m 43.2445,22.66071 12.63029,0.184648 8.181707,5.583391 -15.784999,-0.909342 z"
       id="path1048" />
    <path
       style="fill:#c8b7b7;stroke:none;stroke-width:0.264583px;stroke-linecap:butt;stroke-linejoin:miter;stroke-opacity:1"
       d="m 31.9378,67.694819 7.936181,-10.869698 4.749535,3.392939 -8.352425,10.661986 z"
       id="path65"
       sodipodi:nodetypes="ccccc" />
    <path
       style="fill:#ffcc00;stroke:none;stroke-width:0.264583px;stroke-linecap:butt;stroke-linejoin:miter;stroke-opacity:1"
       d="m 38.208946,58.595004 4.192358,3.104285 0.846506,-1.118679 -4.013064,-2.824126 -0.814176,0.947253 z"
       id="path1056"
       sodipodi:nodetypes="cccccc" />
    <path
       style="fill:#ffcc00;stroke:none;stroke-width:0.264583px;stroke-linecap:butt;stroke-linejoin:miter;stroke-opacity:1"
       d="m 36.70058,60.541282 4.192358,3.104285 0.846506,-1.118679 -4.013064,-2.824126 -0.814176,0.947253 z"
       id="path1058"
       sodipodi:nodetypes="cccccc" />
    <path
       style="fill:#ffcc00;stroke:none;stroke-width:0.264583px;stroke-linecap:butt;stroke-linejoin:miter;stroke-opacity:1"
       d="m 35.046244,62.438903 4.192358,3.104285 0.846506,-1.118679 -4.013064,-2.824126 -0.814176,0.947253 z"
       id="path1060"
       sodipodi:nodetypes="cccccc" />
    <path
       style="fill:#ffcc00;stroke:none;stroke-width:0.264583px;stroke-linecap:butt;stroke-linejoin:miter;stroke-opacity:1"
       d="m 33.732506,64.433838 4.192358,3.104285 0.846506,-1.118679 -4.013064,-2.824126 -0.814176,0.947253 z"
       id="path1062"
       sodipodi:nodetypes="cccccc" />
    <path
       style="fill:#ffcc00;stroke:none;stroke-width:0.264583px;stroke-linecap:butt;stroke-linejoin:miter;stroke-opacity:1"
       d="m 32.126827,66.282802 4.192358,3.104285 0.846506,-1.118679 -4.013064,-2.824126 -0.814176,0.947253 z"
       id="path1050"
       sodipodi:nodetypes="cccccc" />
    <path
       style="fill:#917c6f;stroke:none;stroke-width:0.264583px;stroke-linecap:butt;stroke-linejoin:miter;stroke-opacity:1"
       d="m 55.87479,22.845358 2.949217,-5.043345 6.834585,6.384411 -1.602095,4.242325 z"
       id="path1064" />
    <path
       style="fill:#ac9d93;stroke:none;stroke-width:0.264583px;stroke-linecap:butt;stroke-linejoin:miter;stroke-opacity:1"
       d="m 75.564242,96.778674 11.045129,3.260016 1.394815,-3.611925 -11.389707,-3.180988 -1.050237,3.192299 z"
       id="path1066" />
    <path
       style="fill:#ac9d93;stroke:none;stroke-width:0.265;stroke-linecap:butt;stroke-linejoin:miter;stroke-opacity:1;stroke-miterlimit:4;stroke-dasharray:none"
       d="m 146.29286,88.628978 3.92225,-12.041981 4.88554,1.531782 -3.93363,11.985368 z"
       id="path1082" />
    <path
       style="fill:#ffdd55;stroke:none;stroke-width:0.264583px;stroke-linecap:butt;stroke-linejoin:miter;stroke-opacity:1"
       d="m 140.09984,82.848827 1.85791,-4.885602 6.19302,1.995526 -1.58266,4.816793 z"
       id="path1084"
       sodipodi:nodetypes="ccccc" />
    <path
       style="fill:#ffcc00;stroke:none;stroke-width:0.264583px;stroke-linecap:butt;stroke-linejoin:miter;stroke-opacity:1"
       d="m 26.698793,58.214376 4.816791,3.578188 2.890076,-3.371755 -5.023225,-3.646998 z"
       id="path1086"
       sodipodi:nodetypes="ccccc" />
    <path
       style="fill:#ffd42a;stroke:none;stroke-width:0.264583px;stroke-linecap:butt;stroke-linejoin:miter;stroke-opacity:1"
       d="m 146.79175,87.992474 3.61259,1.204197 0.41287,-1.118183 -3.68141,-1.169794 z"
       id="path1110"
       sodipodi:nodetypes="ccccc" />
    <path
       style="fill:#ffd42a;stroke:none;stroke-width:0.264583px;stroke-linecap:butt;stroke-linejoin:miter;stroke-opacity:1"
       d="m 150.24952,78.599729 3.61259,1.204197 0.41287,-1.118183 -3.68141,-1.169794 z"
       id="path1112"
       sodipodi:nodetypes="ccccc" />
    <path
       style="fill:#ffd42a;stroke:none;stroke-width:0.264583px;stroke-linecap:butt;stroke-linejoin:miter;stroke-opacity:1"
       d="m 149.23455,80.939314 3.61259,1.204197 0.41287,-1.118183 -3.68141,-1.169794 z"
       id="path1114"
       sodipodi:nodetypes="ccccc" />
    <path
       style="fill:#ffd42a;stroke:none;stroke-width:0.264583px;stroke-linecap:butt;stroke-linejoin:miter;stroke-opacity:1"
       d="m 148.34,83.502535 3.61259,1.204197 0.41287,-1.118183 -3.68141,-1.169794 z"
       id="path1116"
       sodipodi:nodetypes="ccccc" />
    <path
       style="fill:#ffd42a;stroke:none;stroke-width:0.264583px;stroke-linecap:butt;stroke-linejoin:miter;stroke-opacity:1"
       d="m 147.60028,85.7217 3.61259,1.204197 0.41287,-1.118183 -3.68141,-1.169794 z"
       id="path1118"
       sodipodi:nodetypes="ccccc" />
    <path
       style="fill:#ac9d93;stroke:none;stroke-width:0.264583px;stroke-linecap:butt;stroke-linejoin:miter;stroke-opacity:1"
       d="m 111.06147,85.807713 2.92448,9.840021 -3.9368,1.807239 -2.87275,-10.119563 z"
       id="path1120"
       sodipodi:nodetypes="ccccc" />
    <path
       id="path1124"
       style="fill:#ffcc00;stroke:none;stroke-width:0.264583px;stroke-linecap:butt;stroke-linejoin:miter;stroke-opacity:1"
       d="m 107.62917,87.752808 3.18703,-1.338064 c 0.10542,0.348708 0.21085,0.697415 0.31627,1.046123 l -3.16269,1.216424 c -0.0892,-0.267614 -0.2514,-0.656869 -0.34061,-0.924483 z"
       sodipodi:nodetypes="ccccc" />
    <path
       id="path1127"
       style="fill:#ffcc00;stroke:none;stroke-width:0.264583px;stroke-linecap:butt;stroke-linejoin:miter;stroke-opacity:1"
       d="m 109.98903,95.343292 3.18703,-1.338064 c 0.10542,0.348708 0.21085,0.697415 0.31627,1.046123 l -3.16269,1.216424 c -0.0892,-0.267614 -0.2514,-0.656869 -0.34061,-0.924483 z"
       sodipodi:nodetypes="ccccc" />
    <path
       id="path1129"
       style="fill:#ffcc00;stroke:none;stroke-width:0.264583px;stroke-linecap:butt;stroke-linejoin:miter;stroke-opacity:1"
       d="m 109.47813,93.397014 3.18703,-1.338064 c 0.10542,0.348708 0.21085,0.697415 0.31627,1.046123 l -3.16269,1.216424 c -0.0892,-0.267614 -0.2514,-0.656869 -0.34061,-0.924483 z"
       sodipodi:nodetypes="ccccc" />
    <path
       id="path1131"
       style="fill:#ffcc00;stroke:none;stroke-width:0.264583px;stroke-linecap:butt;stroke-linejoin:miter;stroke-opacity:1"
       d="m 108.86992,91.596707 3.18703,-1.338064 c 0.10542,0.348708 0.21085,0.697415 0.31627,1.046123 l -3.16269,1.216424 c -0.0892,-0.267614 -0.2514,-0.656869 -0.34061,-0.924483 z"
       sodipodi:nodetypes="ccccc" />
    <path
       id="path1133"
       style="fill:#ffcc00;stroke:none;stroke-width:0.264583px;stroke-linecap:butt;stroke-linejoin:miter;stroke-opacity:1"
       d="m 108.31037,89.699086 3.18703,-1.338064 c 0.10542,0.348708 0.21085,0.697415 0.31627,1.046123 l -3.16269,1.216424 c -0.0892,-0.267614 -0.2514,-0.656869 -0.34061,-0.924483 z"
       sodipodi:nodetypes="ccccc" />
    <path
       style="fill:#ffdd55;stroke:none;stroke-width:0.264583px;stroke-linecap:butt;stroke-linejoin:miter;stroke-opacity:1"
       d="m 115.05301,92.103483 -1.2386,-3.715809 4.50714,-1.68588 1.1698,3.715812 z"
       id="path1084-1"
       sodipodi:nodetypes="ccccc" />
    <path
       style="fill:#a05a2c;stroke:none;stroke-width:0.264583px;stroke-linecap:butt;stroke-linejoin:miter;stroke-opacity:1"
       d="m 118.60782,55.767911 c -0.0529,-0.05749 -0.11557,-0.107315 -0.15865,-0.172474 -0.12892,-0.194987 -0.0319,-0.599773 -0.007,-0.811112 0.0538,-0.455131 0.11421,-0.915746 0.26326,-1.351393 0.19223,-0.561864 0.44178,-1.060781 0.75791,-1.560579 0.17315,-0.273749 0.38606,-0.525629 0.54315,-0.809035 0.23633,-0.426381 0.66399,-1.397852 0.42468,-1.887516 -0.0905,-0.185172 -0.88751,0.218755 -1.00593,0.274296 -0.23948,0.112313 -0.4936,0.21849 -0.71288,0.368498 -0.33382,0.22836 -0.3897,0.207459 -0.74408,0.411644 -0.27312,0.157363 -0.79294,0.511231 -1.07796,0.628743 -0.32021,0.132019 -1.13427,0.568304 -1.23109,0.966269 -0.1041,0.427921 1.08903,1.437047 1.32739,1.740672 0.11677,0.148752 0.24723,0.299072 0.34085,0.464087 0.10602,0.186884 0.17051,0.395248 0.27504,0.583917 0.074,0.133657 0.17092,0.235903 0.26256,0.355338 0.13585,0.177044 0.24642,0.385575 0.40113,0.547206 0.0918,0.09592 0.23545,0.173496 0.34154,0.251439 z"
       id="path1169"
       sodipodi:nodetypes="cscssssssssssscsscc" />
    <path
       style="fill:#ffdd55;stroke:none;stroke-width:0.251954px;stroke-linecap:butt;stroke-linejoin:miter;stroke-opacity:1"
       d="m 80.640918,103.57824 -3.176578,-0.90332 1.182095,-3.328585 3.256241,0.834505 z"
       id="path1084-1-8"
       sodipodi:nodetypes="ccccc" />
    <path
       id="path1124-5"
       style="fill:#ffcc00;stroke:none;stroke-width:0.264583px;stroke-linecap:butt;stroke-linejoin:miter;stroke-opacity:1"
       d="m 76.151828,96.439841 0.973139,-2.822101 c 0.09567,0.348708 0.754182,0.291939 0.754182,0.291939 l -0.973127,2.968074 c -0.0892,-0.267613 -0.664984,-0.170299 -0.754194,-0.437912 z"
       sodipodi:nodetypes="ccccc" />
    <path
       id="path1222"
       style="fill:#ffcc00;stroke:none;stroke-width:0.264583px;stroke-linecap:butt;stroke-linejoin:miter;stroke-opacity:1"
       d="m 83.450371,98.605075 0.973139,-2.822101 c 0.09567,0.348708 0.754182,0.291939 0.754182,0.291939 l -0.973127,2.968074 c -0.0892,-0.267613 -0.664984,-0.170299 -0.754194,-0.437912 z"
       sodipodi:nodetypes="ccccc" />
    <path
       id="path1224"
       style="fill:#ffcc00;stroke:none;stroke-width:0.264583px;stroke-linecap:butt;stroke-linejoin:miter;stroke-opacity:1"
       d="m 81.552749,98.118506 0.973139,-2.822101 c 0.09567,0.348708 0.754182,0.291939 0.754182,0.291939 l -0.973127,2.968074 c -0.0892,-0.267613 -0.664984,-0.170299 -0.754194,-0.437912 z"
       sodipodi:nodetypes="ccccc" />
    <path
       id="path1226"
       style="fill:#ffcc00;stroke:none;stroke-width:0.264583px;stroke-linecap:butt;stroke-linejoin:miter;stroke-opacity:1"
       d="m 79.728114,97.534622 0.973139,-2.822101 c 0.09567,0.348708 0.754182,0.291939 0.754182,0.291939 l -0.973127,2.968074 c -0.0892,-0.267613 -0.664984,-0.170299 -0.754194,-0.437912 z"
       sodipodi:nodetypes="ccccc" />
    <path
       id="path1228"
       style="fill:#ffcc00;stroke:none;stroke-width:0.264583px;stroke-linecap:butt;stroke-linejoin:miter;stroke-opacity:1"
       d="m 77.806164,96.999396 0.973139,-2.822101 c 0.09567,0.348708 0.754182,0.291939 0.754182,0.291939 l -0.973127,2.968074 c -0.0892,-0.267613 -0.664984,-0.170299 -0.754194,-0.437912 z"
       sodipodi:nodetypes="ccccc" />
    <path
       id="path1230"
       style="fill:#ffcc00;stroke:none;stroke-width:0.264583px;stroke-linecap:butt;stroke-linejoin:miter;stroke-opacity:1"
       d="m 85.153364,99.115973 0.973139,-2.822101 c 0.09567,0.348708 0.754182,0.291939 0.754182,0.291939 l -0.973127,2.968074 c -0.0892,-0.267613 -0.664984,-0.170299 -0.754194,-0.437912 z"
       sodipodi:nodetypes="ccccc" />
    <path
       id="path1234"
       style="fill:#d45500;stroke:none;stroke-width:0.264583px;stroke-linecap:butt;stroke-linejoin:miter;stroke-opacity:1"
       d="m 92.099952,118.59903 c 8.826498,-1.9689 15.538918,-8.57555 21.377268,-15.07949 10.39505,-5.922014 11.61357,12.83624 1.65145,13.52445 -7.69091,2.2815 -16.935662,3.85236 -24.543534,1.60406 l 0.415387,-0.10767 z" />
  </g>
</svg>
